<svg width="24" height="24" viewBox="0 0 24 24" fill="none" xmlns="http://www.w3.org/2000/svg">
<g clip-path="url(#clip0_406_2108)">
<path d="M18.5811 2.14067L12.3161 0.0516681C12.111 -0.016653 11.8893 -0.016653 11.6841 0.0516681L5.41812 2.14067C4.42222 2.47172 3.55594 3.10817 2.94236 3.95961C2.32878 4.81105 1.99909 5.83418 2.00012 6.88367V12.0007C2.00012 19.5637 11.2001 23.7407 11.5941 23.9147C11.7219 23.9715 11.8603 24.0008 12.0001 24.0008C12.14 24.0008 12.2783 23.9715 12.4061 23.9147C12.8001 23.7407 22.0001 19.5637 22.0001 12.0007V6.88367C22.0011 5.83406 21.6713 4.81083 21.0575 3.95938C20.4437 3.10793 19.5772 2.47155 18.5811 2.14067ZM12.0001 19.0007C11.8023 19.0007 11.609 18.942 11.4446 18.8321C11.2801 18.7223 11.1519 18.5661 11.0762 18.3834C11.0006 18.2006 10.9808 17.9996 11.0193 17.8056C11.0579 17.6116 11.1532 17.4334 11.293 17.2936C11.4329 17.1537 11.6111 17.0585 11.805 17.0199C11.999 16.9813 12.2001 17.0011 12.3828 17.0768C12.5655 17.1525 12.7217 17.2806 12.8316 17.4451C12.9415 17.6095 13.0001 17.8029 13.0001 18.0007C13.0001 18.2659 12.8948 18.5202 12.7072 18.7078C12.5197 18.8953 12.2653 19.0007 12.0001 19.0007ZM13.0001 14.0007C13.0001 14.2659 12.8948 14.5202 12.7072 14.7078C12.5197 14.8953 12.2653 15.0007 12.0001 15.0007C11.7349 15.0007 11.4806 14.8953 11.293 14.7078C11.1055 14.5202 11.0001 14.2659 11.0001 14.0007V6.00067C11.0001 5.73545 11.1055 5.4811 11.293 5.29356C11.4806 5.10603 11.7349 5.00067 12.0001 5.00067C12.2653 5.00067 12.5197 5.10603 12.7072 5.29356C12.8948 5.4811 13.0001 5.73545 13.0001 6.00067V14.0007Z" fill="#374957"/>
</g>
<defs>
<clipPath id="clip0_406_2108">
<rect width="24" height="24" fill="white"/>
</clipPath>
</defs>
</svg>
